<?xml version="1.0" standalone="no"?>
<!DOCTYPE svg PUBLIC "-//W3C//DTD SVG 20010904//EN"
 "http://www.w3.org/TR/2001/REC-SVG-20010904/DTD/svg10.dtd">
<svg version="1.0" xmlns="http://www.w3.org/2000/svg"
 width="2432.000000pt" height="1952.000000pt" viewBox="0 0 2432.000000 1952.000000"
 preserveAspectRatio="xMidYMid meet">

<g transform="translate(0.000000,1952.000000) scale(0.100000,-0.100000)"
fill="#123CA7" stroke="none">
<path d="M11830 19510 c-1188 -68 -2315 -477 -3265 -1187 -1098 -820 -1889
-2003 -2223 -3328 -137 -542 -189 -1006 -179 -1590 8 -425 37 -699 117 -1095
400 -1973 1792 -3631 3673 -4374 343 -135 675 -232 1064 -311 l33 -7 3 2159 3
2158 21 75 c50 172 122 309 224 433 179 214 420 352 689 392 75 12 222 15 688
15 l592 0 0 -2615 c0 -1438 2 -2615 5 -2615 3 0 58 11 123 25 932 202 1781
604 2515 1192 1632 1309 2456 3350 2196 5443 -198 1596 -1052 3062 -2354 4040
-795 597 -1742 991 -2725 1134 -363 53 -852 76 -1200 56z m635 -2905 c72 -26
274 -95 450 -152 176 -57 543 -178 815 -268 272 -90 608 -200 746 -244 341
-110 474 -178 474 -244 0 -33 -72 -92 -156 -127 -43 -18 -633 -219 -1312 -446
-862 -289 -1246 -414 -1276 -414 -67 0 -1385 445 -1419 479 -18 18 -17 19 55
46 40 15 236 92 434 171 199 79 441 171 538 204 294 100 403 149 462 212 40
42 48 67 34 117 -21 81 -123 92 -290 33 -128 -45 -1295 -506 -1381 -545 -184
-84 -307 -194 -378 -339 -47 -95 -101 -293 -104 -384 -2 -58 0 -62 40 -108 85
-97 109 -234 57 -324 -85 -147 -85 -145 -58 -417 21 -213 21 -448 0 -542 -32
-145 -94 -260 -196 -363 -128 -130 -230 -132 -472 -8 -101 51 -159 94 -158
117 1 3 55 74 121 156 190 237 249 336 312 526 36 108 77 286 77 336 0 21 -14
42 -54 82 -69 69 -100 135 -100 216 1 71 18 108 98 213 63 82 63 84 107 317
31 165 34 174 107 323 47 94 72 155 66 161 -5 5 -99 37 -208 71 -342 105 -436
154 -436 227 0 31 49 84 107 115 47 26 2399 813 2518 842 39 10 93 14 155 12
84 -3 110 -9 225 -51z m1501 -2085 c-3 -184 -10 -354 -16 -378 -28 -116 -95
-197 -249 -300 -262 -176 -643 -284 -1135 -323 -195 -15 -674 -6 -856 16 -509
62 -896 189 -1067 348 -91 85 -90 84 -49 175 49 110 60 159 54 262 -4 71 -11
101 -35 152 -30 63 -84 126 -135 156 -16 9 -28 21 -28 27 1 30 39 288 44 292
11 11 239 -55 526 -154 1019 -350 1074 -367 1200 -366 61 0 107 10 242 52 92
28 178 55 190 61 13 5 226 81 473 169 454 160 619 215 756 250 l74 19 8 -62
c5 -33 6 -212 3 -396z"/>
<path d="M20030 5870 c-93 -11 -145 -27 -224 -68 -304 -159 -356 -563 -103
-798 103 -96 238 -144 404 -144 173 0 303 49 407 154 198 199 194 525 -8 714
-121 112 -290 163 -476 142z"/>
<path d="M396 5854 c-144 -35 -287 -146 -344 -266 -143 -302 24 -634 359 -713
82 -19 226 -19 308 0 130 31 265 126 326 229 150 256 55 585 -205 708 -41 20
-99 41 -128 47 -72 15 -244 12 -316 -5z"/>
<path d="M18010 4834 l0 -716 -42 53 c-208 264 -535 412 -908 411 -279 -1
-505 -68 -733 -219 -102 -68 -270 -239 -346 -352 -216 -326 -313 -756 -271
-1205 70 -733 499 -1253 1124 -1361 116 -20 347 -20 462 0 292 51 541 203 686
419 l28 41 0 -217 0 -218 470 0 470 0 0 2040 0 2040 -470 0 -470 0 0 -716z
m-505 -1091 c111 -27 202 -80 290 -168 92 -92 140 -174 181 -310 25 -82 27
-104 27 -255 1 -139 -3 -178 -21 -245 -57 -210 -182 -368 -358 -454 -88 -43
-172 -61 -285 -61 -381 0 -650 277 -676 695 -7 121 9 252 43 355 114 342 449
528 799 443z"/>
<path d="M10525 4579 c-195 -16 -385 -81 -539 -183 -87 -58 -197 -161 -250
-235 l-31 -43 -5 208 -5 209 -467 3 -468 2 0 -2270 0 -2270 470 0 470 0 0 943
1 942 31 -40 c104 -132 268 -257 421 -322 174 -73 323 -98 550 -90 168 5 288
28 415 77 301 116 552 350 705 656 162 323 222 760 161 1159 -125 812 -711
1315 -1459 1254z m10 -835 c187 -45 345 -175 430 -356 60 -127 78 -212 78
-383 0 -122 -4 -165 -22 -230 -89 -331 -330 -525 -650 -525 -191 0 -327 55
-457 185 -68 68 -89 97 -127 176 -61 128 -78 199 -84 359 -6 176 15 290 82
428 78 159 219 284 383 337 107 34 246 38 367 9z"/>
<path d="M13725 4580 c-699 -50 -1210 -471 -1366 -1129 -65 -270 -65 -622 0
-892 138 -582 550 -977 1147 -1100 129 -27 440 -37 581 -19 522 65 946 360
1152 800 42 91 81 202 81 232 0 17 -21 18 -494 18 l-494 0 -31 -54 c-62 -110
-178 -197 -306 -231 -77 -20 -243 -20 -320 0 -232 61 -391 255 -421 514 l-7
61 1066 0 1065 0 9 78 c14 137 7 385 -16 516 -24 137 -83 320 -136 427 -116
232 -308 438 -533 573 -255 154 -623 231 -977 206z m300 -776 c231 -55 380
-219 410 -451 l7 -53 -592 0 -592 0 7 38 c11 61 45 154 76 208 127 223 399
326 684 258z"/>
<path d="M22305 4580 c-658 -56 -1140 -578 -1226 -1329 -17 -154 -7 -486 20
-629 93 -492 356 -868 742 -1062 183 -91 356 -130 579 -130 381 0 694 138 896
394 l59 75 3 -214 2 -215 470 0 470 0 -2 1533 -3 1532 -467 3 -468 2 0 -210
c0 -115 -3 -210 -7 -210 -5 1 -28 28 -53 61 -168 227 -454 372 -787 399 -69 5
-129 9 -132 9 -3 -1 -46 -5 -96 -9z m560 -836 c184 -45 339 -172 425 -349 68
-140 94 -300 79 -481 -17 -205 -78 -343 -209 -475 -92 -93 -179 -144 -295
-174 -76 -19 -241 -19 -323 0 -207 49 -385 211 -461 421 -44 120 -54 201 -49
365 6 163 30 261 96 379 43 79 166 205 242 247 147 83 327 107 495 67z"/>
<path d="M6509 4565 c-190 -31 -340 -79 -500 -162 -417 -215 -686 -619 -754
-1131 -19 -140 -19 -392 0 -535 95 -726 586 -1213 1306 -1297 153 -18 434 -8
572 19 452 91 791 347 992 750 43 87 105 255 120 329 l7 32 -499 0 -498 0 -32
-69 c-86 -182 -236 -272 -453 -273 -125 0 -206 22 -296 80 -200 129 -303 437
-273 814 34 420 236 652 569 652 211 0 366 -94 452 -273 l33 -70 499 0 498 -1
-7 36 c-24 132 -134 384 -226 520 -68 102 -217 255 -318 328 -153 110 -340
190 -556 236 -130 28 -501 37 -636 15z"/>
<path d="M3358 4554 c-254 -46 -469 -160 -633 -337 l-75 -80 0 196 0 197 -470
0 -470 0 0 -1530 0 -1530 470 0 470 0 0 854 c0 554 4 882 11 933 31 229 142
395 314 473 88 40 158 54 270 54 119 0 185 -14 283 -61 139 -65 240 -200 282
-374 19 -81 20 -117 20 -981 l0 -898 470 0 471 0 -4 1023 c-3 1004 -4 1024
-25 1121 -116 535 -430 856 -919 941 -107 19 -360 18 -465 -1z"/>
<path d="M19630 3005 l0 -1535 470 0 470 0 0 1535 0 1535 -470 0 -470 0 0
-1535z"/>
<path d="M90 3000 l0 -1530 470 0 470 0 0 1530 0 1530 -470 0 -470 0 0 -1530z"/>
</g>
</svg>
